<?xml version="1.0" ?><!DOCTYPE svg  PUBLIC '-//W3C//DTD SVG 1.1//EN'  'http://www.w3.org/Graphics/SVG/1.1/DTD/svg11.dtd'><svg enable-background="new 0 0 128 128" height="128px" id="icons" version="1.1" viewBox="0 0 128 128" width="128px" xml:space="preserve" xmlns="http://www.w3.org/2000/svg" xmlns:xlink="http://www.w3.org/1999/xlink"><g><path d="M66.001,52h-42C20.688,52,18,54.715,18,58.029v30C18,91.343,20.688,94,24.001,94H31c0,0,0,8.387,0,10.075   c0,2.203,2.61,2.416,4.09,1.129C35.923,104.48,47.002,94,47.002,94h19C69.315,94,72,91.343,72,88.029v-30   C72,54.715,69.315,52,66.001,52z" fill="#2DBD9B"/><path d="M40,34h66c3.313,0,6,2.685,6,5.998v40c0,3.313-2.687,6.002-6,6.002h-9c0,0,0,8.356,0,10.044   c0,2.203-2.609,2.431-4.089,1.145C92.078,96.465,81,86,81,86H40c-3.313,0-6-2.688-6-6.002v-40C34,36.685,36.687,34,40,34z" fill="#40D0AD"/><ellipse cx="85" cy="60.252" fill="#FFFFFF" rx="4" ry="4.042"/><ellipse cx="73" cy="60.252" fill="#FFFFFF" rx="4" ry="4.042"/><circle cx="61" cy="60.294" fill="#FFFFFF" r="4"/></g></svg>