<?xml version="1.0" ?><!DOCTYPE svg  PUBLIC '-//W3C//DTD SVG 1.1//EN'  'http://www.w3.org/Graphics/SVG/1.1/DTD/svg11.dtd'><svg enable-background="new 0 0 128 128" height="128px" version="1.1" viewBox="0 0 128 128" width="128px" xml:space="preserve" xmlns="http://www.w3.org/2000/svg" xmlns:xlink="http://www.w3.org/1999/xlink"><g id="Layer_2"/><g id="Layer_1"><path d="M67,25.376c-0.336,0-0.667,0.015-1,0.025V57.5l29.096-15.575C89.613,32.057,79.09,25.376,67,25.376z" fill="#FFCF47"/><path d="M63,64V31.901C45.722,32.431,31.876,46.594,31.876,64c0,17.742,14.382,32.124,32.124,32.124   c17.21,0,31.256-13.532,32.084-30.536L63,64z" fill="#40D0AD"/><path d="M95.958,61.652c0-5.112-1.325-9.914-3.644-14.086L66.325,61.478l29.62,1.134   C95.969,62.136,95.958,62.134,95.958,61.652z" fill="#AC8FEF"/></g></svg>